# xmcd CD database file
#
# Track frame offsets:
#	150
#	32553
#	58552
#	84014
#	122022
#	151331
#	177232
#	207793
#	267305
#	286736
#	301761
#
# Disc length: 4306 seconds
#
# Revision: 2
# Processed by: cddbd v1.5.2PL0 Copyright (c) Steve Scherf et al.
# Submitted via: CDex 1.70beta2
#
DISCID=8210d00b
DTITLE=Various Artist - The Best of Polish Smooth Jazz - CD 3
DYEAR=2005
DGENRE=Jazz
TTITLE0=Włodek Pawlik Quartet Feat. Randy Brecker - There's A Mingus A Monk Us
TTITLE1=Robert Majewski - Coś dla ludzi
TTITLE2=Traveling Birds Quintet - Straight Answer
TTITLE3=Custom Trio and Andrzej Przybielski - A. P. Custom Signal
TTITLE4=Tomasz Stańko - Shaky Chica
TTITLE5=Leszek Kułakowski Quintet - Pryma
TTITLE6=Zbigniew Lewandowski - You Don't Know What Love Is
TTITLE7=Tadeusz Nestorowicz - Summertime
TTITLE8=Piotr Wojtasik - Jesienne Liście
TTITLE9=Brass Standard Jazz Orchestra - The Pink Panther
TTITLE10=Ryszard Borowski Big Band - The Man I Love
EXTD=YEAR: 2005
EXTT0=
EXTT1=
EXTT2=
EXTT3=
EXTT4=
EXTT5=
EXTT6=
EXTT7=
EXTT8=
EXTT9=
EXTT10=
PLAYORDER=
